<svg width="80" height="23" viewBox="0 0 80 23" fill="none" xmlns="http://www.w3.org/2000/svg">
<path d="M69.434 0H10.566C4.73058 0 0 5.14873 0 11.5C0 17.8513 4.73058 23 10.566 23H69.434C75.2694 23 80 17.8513 80 11.5C80 5.14873 75.2694 0 69.434 0Z" fill="url(#paint0_linear_8121_106188)"/>
<path d="M68.1887 11.9642V17.5331C68.1925 17.7757 68.145 18.0164 68.0494 18.2395C67.9537 18.4627 67.8121 18.6633 67.6337 18.8284C67.4553 18.9934 67.244 19.1192 67.0137 19.1975C66.7834 19.2759 66.5391 19.305 66.2967 19.2831H63.4416V19.2685H63.2998V14.0198H58.8558V19.2767H58.5022C57.5945 19.2767 56.7096 19.2766 55.8101 19.262C55.5733 19.2818 55.3351 19.2525 55.1103 19.1758C54.8856 19.0992 54.6792 18.9768 54.5041 18.8167C54.3291 18.6565 54.1893 18.4619 54.0935 18.2452C53.9977 18.0284 53.9479 17.7943 53.9474 17.5575V11.9886C54.2864 12.0341 54.6253 12.0957 54.948 12.1104C55.6056 12.1605 56.2646 12.0338 56.8563 11.7432C56.9016 11.7206 56.9515 11.7088 57.0021 11.7088C57.0528 11.7088 57.1027 11.7206 57.148 11.7432C57.7432 12.0224 58.3938 12.1645 59.0517 12.1592C59.7095 12.1538 60.3576 12.0011 60.9483 11.7123C60.9865 11.6934 61.0286 11.6836 61.0713 11.6836C61.114 11.6836 61.1561 11.6934 61.1944 11.7123C61.7824 12.0011 62.4282 12.1539 63.0836 12.1593C63.7391 12.1646 64.3873 12.0224 64.98 11.7432C65.0568 11.7081 65.144 11.7029 65.2244 11.7285C66.1009 12.1511 67.1008 12.244 68.0404 11.9902C68.0856 11.9759 68.132 11.9656 68.1789 11.9593" fill="#474747"/>
<path d="M69.1241 8.40981V8.66828C69.1111 8.72678 69.098 8.7852 69.0866 8.84532C69.0196 9.28352 68.7811 9.67738 68.4234 9.94059C67.9242 10.3043 67.3045 10.4642 66.6911 10.3875C66.1055 10.3237 65.561 10.0569 65.1527 9.63352C64.592 10.1521 63.853 10.4362 63.0883 10.4275C62.3236 10.4187 61.5914 10.1176 61.0428 9.58631C60.4953 10.1126 59.7667 10.4103 59.0063 10.4184C58.2459 10.4266 57.5111 10.1446 56.9524 9.63025L56.8449 9.72606C56.5392 10.0164 56.1643 10.2242 55.7557 10.3297C55.347 10.4352 54.9181 10.435 54.5096 10.329C54.0545 10.2604 53.6438 10.0182 53.3644 9.65346C53.085 9.28872 52.9586 8.83 53.012 8.37411C53.0582 8.10221 53.145 7.83872 53.2694 7.59245C53.83 6.3347 54.4102 5.08184 54.9659 3.82571C55.0663 3.58661 55.2173 3.37197 55.4085 3.1964C55.5998 3.02084 55.8268 2.88852 56.074 2.8085C56.1718 2.77438 56.2745 2.75159 56.3755 2.72559H65.86C65.88 2.73801 65.9013 2.74842 65.9235 2.75653C66.2193 2.81056 66.4962 2.93911 66.7281 3.12995C66.96 3.3208 67.1391 3.56753 67.2484 3.84684C67.4619 4.34571 67.6868 4.83644 67.8856 5.34181C68.3551 6.34184 68.767 7.36789 69.1192 8.41477" fill="#474747"/>
<g clip-path="url(#clip0_8121_106188)">
<path d="M23.25 13.1197L23.48 14.9997H16C15.32 14.9997 14.73 14.9597 14.22 14.8697C13.71 14.7797 13.25 14.5497 12.82 14.1797C12.39 13.8097 12.14 13.2297 12.04 12.4397C12 12.0897 11.99 11.7097 12.01 11.3097C12.04 10.9097 12.08 10.5597 12.14 10.2597L13.83 10.3597C13.83 10.2697 13.83 10.5197 13.83 11.0897C13.83 11.5597 13.83 11.8497 13.85 11.9697C13.88 12.2497 14.02 12.5097 14.25 12.7597C14.48 13.0097 14.88 13.1297 15.44 13.1297H19.35L18.84 9.00969H20.9L21.41 13.1297H23.22L23.25 13.1197ZM14.43 7.17969H15.88L16.1 8.99969H14.65L14.43 7.17969ZM16.47 7.17969H17.92L18.14 8.99969H16.69L16.47 7.17969Z" fill="#474748"/>
<path d="M29.29 9.37977C29.72 9.79977 30.01 10.2298 30.16 10.6798C30.32 11.1298 30.41 11.5098 30.45 11.8198L30.84 14.9998H23.47L23.24 13.1198H28.54L28.38 11.8098C28.35 11.5398 28.27 11.3098 28.15 11.1398C28.03 10.9598 27.89 10.8398 27.74 10.7598C27.59 10.6798 27.46 10.6398 27.36 10.6498H24.17L23.04 9.33977L23.63 7.81977C23.76 7.47977 23.93 7.13977 24.15 6.79977C24.37 6.45977 24.57 6.19977 24.74 6.00977L26.4 6.88977C26.34 6.95977 26.22 7.17977 26.04 7.55977C25.86 7.93977 25.69 8.29977 25.54 8.66977L25.49 8.77977H27.52C28.27 8.77977 28.86 8.98977 29.29 9.39977V9.37977Z" fill="#474748"/>
<path d="M31.65 17.9302L31.42 16.0702H31.6C32.03 16.0802 32.21 15.7502 32.13 15.1002L31.38 8.99023H33.44L34.15 14.8002C34.27 15.7802 34.2 16.5502 33.93 17.1202C33.66 17.6902 33.19 17.9702 32.51 17.9702C32.33 17.9702 32.04 17.9602 31.64 17.9302H31.65Z" fill="#474748"/>
<path d="M38.48 13.1202L38.71 15.0002H35.43L34.42 6.74023H36.48L37.26 13.1102H38.47L38.48 13.1202Z" fill="#474748"/>
<path d="M44.89 9.30039C45.38 9.56039 45.71 9.90039 45.88 10.3204C46.05 10.7404 46.18 11.3004 46.27 12.0004L46.64 15.0004H38.72L38.49 13.1204H40.28C40.12 12.6704 40.02 12.2904 39.98 11.9804C39.93 11.6004 39.93 11.1704 39.98 10.6704C40.03 10.1704 40.09 9.73039 40.17 9.35039C40.38 9.24039 40.71 9.14039 41.16 9.04039C41.61 8.95039 42.14 8.90039 42.73 8.90039C43.68 8.90039 44.4 9.03039 44.89 9.30039ZM42.08 12.5904C42.14 12.8004 42.2 12.9704 42.26 13.1204H44.34L44.2 11.9604C44.17 11.6804 44.12 11.4604 44.07 11.3104C44.02 11.1604 43.89 11.0304 43.69 10.9204C43.49 10.8104 43.19 10.7604 42.79 10.7604C42.49 10.7604 42.2 10.7904 41.94 10.8604C41.91 11.3004 41.92 11.6804 41.96 11.9904C41.98 12.1904 42.03 12.3904 42.09 12.6004L42.08 12.5904Z" fill="#474748"/>
</g>
<defs>
<linearGradient id="paint0_linear_8121_106188" x1="-105.52" y1="-56.764" x2="-88.4627" y2="70.8537" gradientUnits="userSpaceOnUse">
<stop stop-color="#A1F4F4" stop-opacity="0.992"/>
<stop offset="1" stop-color="#E6EFA1"/>
</linearGradient>
<clipPath id="clip0_8121_106188">
<rect width="34.63" height="11.96" fill="white" transform="translate(12 6)"/>
</clipPath>
</defs>
</svg>
